<?xml version="1.0" encoding="utf-8"?>
<!-- Generator: Adobe Illustrator 27.7.0, SVG Export Plug-In . SVG Version: 6.00 Build 0)  -->
<svg version="1.1" id="Laag_1" xmlns="http://www.w3.org/2000/svg" xmlns:xlink="http://www.w3.org/1999/xlink" x="0px" y="0px"
	 viewBox="0 0 549.5 499.1" style="enable-background:new 0 0 549.5 499.1;" xml:space="preserve">
<style type="text/css">
	.st0{opacity:8.000000e-02;fill:#083046;enable-background:new    ;}
</style>
<path class="st0" d="M0,507.9V431c0-19.1,4.9-36.4,14.7-51.9c9.8-15.5,23.4-27.1,40.9-34.8c39.8-17.4,75.7-30,107.6-37.6
	s64.7-11.5,98.6-11.5s66.5,3.8,98.1,11.5s67.3,20.2,107.1,37.6c17.4,7.6,31.2,19.2,41.3,34.8c10.1,15.5,15.1,32.9,15.1,51.9v76.9H0z
	 M572.5,507.9V431c0-34.4-8.7-62.6-26.2-84.6s-40.3-39.9-68.7-53.6c37.6,4.4,73.1,10.8,106.3,19.2c33.3,8.5,60.2,18.1,81,29
	c18,10.4,32.2,23.2,42.5,38.4c10.4,15.3,15.5,32.4,15.5,51.5v76.9H572.5z M261.7,245.4c-36,0-65.4-11.5-88.3-34.4
	S139,158.7,139,122.7s11.5-65.4,34.4-88.3S225.7,0,261.7,0s65.4,11.5,88.3,34.4s34.4,52.3,34.4,88.3S373,188.1,350,211
	S297.7,245.4,261.7,245.4z M556.2,122.7c0,36-11.5,65.4-34.4,88.3s-52.3,34.4-88.3,34.4c-6,0-12.7-0.4-20-1.2
	c-7.4-0.8-14-2.3-20-4.5c13.1-13.6,23-30.4,29.9-50.3c6.8-19.9,10.2-42.1,10.2-66.7s-3.4-46.2-10.2-65
	c-6.8-18.8-16.8-36.1-29.9-51.9c6-1.6,12.7-3,20-4.1c7.4-1.1,14-1.6,20-1.6c36,0,65.4,11.5,88.3,34.4S556.2,86.7,556.2,122.7z"/>
</svg>
