<?xml version="1.0" encoding="utf-8"?>
<!-- Generator: Adobe Illustrator 27.7.0, SVG Export Plug-In . SVG Version: 6.00 Build 0)  -->
<svg version="1.1" id="Laag_1" xmlns="http://www.w3.org/2000/svg" xmlns:xlink="http://www.w3.org/1999/xlink" x="0px" y="0px"
	 viewBox="0 0 549.49 499.12" style="enable-background:new 0 0 549.49 499.12;" xml:space="preserve">
<style type="text/css">
	.st0{opacity:0.08;fill:#083046;}
</style>
<path class="st0" d="M312.5,0.01c172.59,0,312.49,139.9,312.49,312.49S485.09,624.99,312.5,624.99S0.01,485.09,0.01,312.5
	S139.91,0.01,312.5,0.01z M312.5,93.75C191.69,93.75,93.75,191.67,93.74,312.48c0,55.6,21.16,109.12,59.2,149.67l4.87,5L202,422.97
	c-61.04-61-61.08-159.93-0.08-220.97c39.49-39.51,97.06-54.94,151.01-40.47l48.87-48.75C373.72,100.21,343.28,93.72,312.5,93.75z
	 M512.25,223.22l-48.78,48.81c14.39,53.93-1.03,111.44-40.47,150.93l44.19,44.22c41.09-40.98,64.14-96.65,64.06-154.68
	C531.28,281.73,524.81,251.31,512.25,223.22z M445.06,135.72l-116.4,116.4c-33.41-8.87-67.69,11.02-76.56,44.43
	c-1.38,5.2-2.09,10.56-2.1,15.94c0,34.52,27.98,62.5,62.5,62.5c34.52,0,62.5-27.98,62.5-62.5c0-5.46-0.71-10.89-2.12-16.16
	l116.4-116.43l-44.19-44.19L445.06,135.72z"/>
</svg>
