<?xml version="1.0" encoding="utf-8"?>
<!-- Generator: Adobe Illustrator 27.7.0, SVG Export Plug-In . SVG Version: 6.00 Build 0)  -->
<svg version="1.1" id="Laag_1" xmlns="http://www.w3.org/2000/svg" xmlns:xlink="http://www.w3.org/1999/xlink" x="0px" y="0px"
	 viewBox="0 0 549.5 499.1" style="enable-background:new 0 0 549.5 499.1;" xml:space="preserve">
<style type="text/css">
	.st0{opacity:8.000000e-02;fill:#083046;enable-background:new    ;}
</style>
<path class="st0" d="M395,254c-34.9,0-64.8-12.4-89.7-37.3C280.4,191.8,268,161.9,268,127s12.4-64.8,37.3-89.7S360,0,395,0
	c34.9,0,64.8,12.4,89.7,37.3c24.9,24.9,37.3,54.8,37.3,89.7s-12.4,64.8-37.3,89.7C459.8,241.5,429.9,254,395,254z M141,507.9V419
	c0-18,4.6-34.5,13.9-49.6c9.3-15.1,21.6-26.6,36.9-34.5c32.8-16.4,66.1-28.7,100-36.9S360,285.7,395,285.7
	c34.9,0,69.3,4.1,103.2,12.3s67.2,20.5,100,36.9c15.3,7.9,27.6,19.4,36.9,34.5s13.9,31.6,13.9,49.6v88.9H141z"/>
</svg>
