<?xml version="1.0" encoding="utf-8"?>
<!-- Generator: Adobe Illustrator 27.7.0, SVG Export Plug-In . SVG Version: 6.00 Build 0)  -->
<svg version="1.1" id="Laag_1" xmlns="http://www.w3.org/2000/svg" xmlns:xlink="http://www.w3.org/1999/xlink" x="0px" y="0px"
	 viewBox="0 0 554.27 482.68" style="enable-background:new 0 0 554.27 482.68;" xml:space="preserve">
<style type="text/css">
	.st0{opacity:0.08;fill:#083046;}
</style>
<path class="st0" d="M312.5,374.85c-8.83,0-16.24-2.99-22.23-8.98c-5.99-5.99-8.97-13.38-8.95-22.2c0-8.83,2.99-16.24,8.98-22.23
	c5.99-5.99,13.38-8.97,22.2-8.95c8.83,0,16.24,2.99,22.23,8.98c5.99,5.99,8.97,13.38,8.95,22.2c0,8.83-2.99,16.24-8.98,22.23
	C328.71,371.89,321.31,374.87,312.5,374.85z M187.81,374.85c-8.83,0-16.24-2.99-22.23-8.98c-5.99-5.99-8.97-13.38-8.95-22.2
	c0-8.83,2.99-16.24,8.98-22.23c5.99-5.99,13.38-8.97,22.2-8.95c8.83,0,16.24,2.99,22.23,8.98c5.99,5.99,8.97,13.38,8.95,22.2
	c0,8.83-2.99,16.24-8.98,22.23C204.02,371.89,196.62,374.87,187.81,374.85z M437.19,374.85c-8.83,0-16.24-2.99-22.23-8.98
	c-5.99-5.99-8.97-13.38-8.95-22.2c0-8.83,2.99-16.24,8.98-22.23c5.99-5.99,13.38-8.97,22.2-8.95c8.83,0,16.24,2.99,22.23,8.98
	c5.99,5.99,8.97,13.38,8.95,22.2c0,8.83-2.99,16.24-8.98,22.23C453.4,371.89,446.01,374.87,437.19,374.85z M312.5,499.54
	c-8.83,0-16.24-2.99-22.23-8.98c-5.99-5.99-8.97-13.38-8.95-22.2c0-8.83,2.99-16.24,8.98-22.23c5.99-5.99,13.38-8.97,22.2-8.95
	c8.83,0,16.24,2.99,22.23,8.98c5.99,5.99,8.97,13.38,8.95,22.2c0,8.83-2.99,16.24-8.98,22.23
	C328.71,496.58,321.31,499.56,312.5,499.54z M187.81,499.54c-8.83,0-16.24-2.99-22.23-8.98c-5.99-5.99-8.97-13.38-8.95-22.2
	c0-8.83,2.99-16.24,8.98-22.23c5.99-5.99,13.38-8.97,22.2-8.95c8.83,0,16.24,2.99,22.23,8.98c5.99,5.99,8.97,13.38,8.95,22.2
	c0,8.83-2.99,16.24-8.98,22.23C204.02,496.58,196.62,499.56,187.81,499.54z M437.19,499.54c-8.83,0-16.24-2.99-22.23-8.98
	c-5.99-5.99-8.97-13.38-8.95-22.2c0-8.83,2.99-16.24,8.98-22.23c5.99-5.99,13.38-8.97,22.2-8.95c8.83,0,16.24,2.99,22.23,8.98
	c5.99,5.99,8.97,13.38,8.95,22.2c0,8.83-2.99,16.24-8.98,22.23C453.4,496.58,446.01,499.56,437.19,499.54z M94.29,624.24
	c-17.15,0-31.83-6.11-44.05-18.33c-12.22-12.22-18.32-26.89-18.3-44.02V125.46c0-17.15,6.11-31.83,18.33-44.05
	s26.89-18.32,44.02-18.3h31.17V0.76h62.35v62.35h249.39V0.76h62.35v62.35h31.17c17.15,0,31.83,6.11,44.05,18.33
	c12.22,12.22,18.32,26.89,18.3,44.02v436.43c0,17.15-6.11,31.83-18.33,44.05c-12.22,12.22-26.89,18.32-44.02,18.3H94.29z
	 M94.29,561.89h436.43V250.15H94.29V561.89z"/>
</svg>
