<?xml version="1.0" encoding="utf-8"?>
<!-- Generator: Adobe Illustrator 27.7.0, SVG Export Plug-In . SVG Version: 6.00 Build 0)  -->
<svg version="1.1" id="Laag_1" xmlns="http://www.w3.org/2000/svg" xmlns:xlink="http://www.w3.org/1999/xlink" x="0px" y="0px"
	 viewBox="0 0 549.5 499.1" style="enable-background:new 0 0 549.5 499.1;" xml:space="preserve">
<style type="text/css">
	.st0{opacity:8.000000e-02;fill-rule:evenodd;clip-rule:evenodd;fill:#083046;enable-background:new    ;}
</style>
<path class="st0" d="M397.7,0c25.9,0,49.8,13.8,62.7,36.2h45.9c40,0,72.4,32.4,72.4,72.4V543c0,100-81,181-181,181H71.9
	c-40,0-72.4-32.4-72.4-72.4v-543c0-40,32.4-72.4,72.4-72.4h45.9C130.7,13.8,154.6,0,180.5,0H397.7z M108.1,108.6H71.9v543h325.8
	c60,0,108.6-48.6,108.6-108.6V108.6h-36.2c0,40-32.4,72.4-72.4,72.4H180.5C140.5,181,108.1,148.6,108.1,108.6z M442.5,238.1
	c14.1,14.1,14.1,37.1,0,51.2L263.3,468.5c-14.1,14.1-37.1,14.1-51.2,0l-76.7-76.8c-13.7-14.6-13-37.5,1.6-51.2
	c13.9-13.1,35.6-13.1,49.5,0l51.2,51.2l153.6-153.6C405.4,224,428.4,224,442.5,238.1z M397.7,72.4H180.5v36.2h217.2V72.4z"/>
</svg>
